<?xml version="1.0" encoding="utf-8"?>
<svg aria-hidden="true" viewBox="0 0 92 96" fill="none" xmlns="http://www.w3.org/2000/svg">
  <title>Burger King Logo</title>
  <path d="M76.8429 80.6023C70.7842 84.0223 60.39 85 46.0118 85C31.6336 85 21.2395 84.0223 15.1808 80.6023C11.5443 78.5545 9.70361 75.7626 9.70361 73.761C9.70361 72.621 10.3101 71.9693 11.6606 71.9693H80.3617C81.7135 71.9693 82.3188 72.621 82.3188 73.761C82.32 75.7626 80.4793 78.5545 76.8429 80.6023ZM80.3617 27.5478H11.6606C10.3101 27.5478 9.70361 26.8499 9.70361 25.5937C9.70361 18.1469 20.9131 5 46.0118 5C70.878 5 82.32 18.1469 82.32 25.5937C82.32 26.8499 81.7135 27.5478 80.3617 27.5478Z" fill="#FF8732"/>
  <g transform="matrix(1, 0, 0, 1, 0.025006, -17.167059)">
    <path d="M 24.338 58.264 C 24.128 57.938 24.106 57.729 24.106 57.636 C 24.106 57.38 24.246 57.194 24.524 56.938 C 25.177 56.333 26.785 54.821 27.671 53.448 C 28.346 52.401 28.626 51.447 28.626 50.656 C 28.626 48.632 26.785 47.049 24.781 47.049 C 23.499 47.049 22.287 47.771 21.472 49.097 C 20.377 50.865 19.071 52.913 18.233 53.728 C 18.023 53.938 17.907 53.984 17.744 53.984 C 17.464 53.984 17.348 53.798 17.348 53.496 L 17.348 51.168 C 17.348 48.888 15.996 47.049 13.549 47.049 C 11.079 47.049 9.75 48.887 9.75 51.168 L 9.75 65.503 C 9.75 67.783 11.078 69.622 13.549 69.622 C 15.996 69.622 17.348 67.784 17.348 65.503 L 17.348 62.199 C 17.348 61.919 17.464 61.71 17.744 61.71 C 18.117 61.71 18.211 62.083 18.303 62.269 C 18.84 63.548 20.4 66.271 21.846 67.876 C 22.825 68.946 24.037 69.622 25.319 69.622 C 27.486 69.622 29.304 67.736 29.304 65.712 C 29.304 64.456 28.767 63.525 27.742 62.408 C 26.436 60.986 24.898 59.125 24.338 58.264 Z" fill="#D62300"/>
    <path d="M 34.965 47.048 C 32.355 47.048 30.933 49.002 30.933 51.445 L 30.933 65.222 C 30.933 67.665 32.355 69.619 34.965 69.619 C 37.575 69.619 38.997 67.665 38.997 65.222 L 38.997 51.445 C 38.997 49.003 37.576 47.048 34.965 47.048 Z" fill="#D62300"/>
    <path d="M 76.4 56.007 L 75.258 56.007 C 73.208 56.007 71.623 56.961 71.623 59.055 C 71.623 60.963 73.348 61.87 74.629 61.87 C 75.258 61.87 75.701 62.056 75.701 62.545 C 75.701 63.15 74.956 63.545 74.163 63.545 C 71.529 63.545 69.735 61.753 69.735 58.425 C 69.735 54.726 72.182 53.376 74.069 53.376 C 76.376 53.376 76.749 54.54 78.357 54.54 C 80.222 54.54 81.48 53.028 81.48 51.492 C 81.48 50.352 80.967 49.468 80.152 48.862 C 78.73 47.814 76.586 47.047 73.556 47.047 C 68.127 47.047 62.836 50.467 62.836 58.425 C 62.836 66.035 68.126 69.594 73.346 69.594 C 78.822 69.594 82.295 66.221 82.295 61.287 C 82.296 58.171 80.339 56.007 76.4 56.007 Z" fill="#D62300"/>
    <path d="M 57.314 47.048 C 54.913 47.048 53.609 48.84 53.609 51.097 L 53.609 56.123 C 53.609 56.541 53.469 56.728 53.212 56.728 C 53.026 56.728 52.886 56.612 52.723 56.286 L 49.485 50.003 C 48.249 47.606 46.967 47.048 45.499 47.048 C 43.052 47.048 41.7 48.886 41.7 51.19 L 41.7 65.571 C 41.7 67.829 43.006 69.621 45.405 69.621 C 47.806 69.621 49.111 67.829 49.111 65.571 L 49.111 60.546 C 49.111 60.127 49.251 59.94 49.507 59.94 C 49.693 59.94 49.833 60.056 49.996 60.382 L 53.235 66.665 C 54.47 69.062 55.798 69.621 57.22 69.621 C 59.667 69.621 61.019 67.783 61.019 65.479 L 61.019 51.097 C 61.019 48.84 59.715 47.048 57.314 47.048 Z" fill="#D62300"/>
  </g>
  <g transform="matrix(1, 0, 0, 1, -0.00039, 23.78706)">
    <path d="M 53.4 45.722 C 57.059 45.722 59.366 43.394 59.366 39.998 C 59.366 37.834 58.06 36.344 55.451 36.344 L 54.705 36.344 C 53.33 36.344 52.258 36.996 52.258 38.462 C 52.258 39.766 53.4 40.394 54.263 40.394 C 54.705 40.394 54.985 40.534 54.985 40.86 C 54.985 41.278 54.496 41.558 53.936 41.558 C 52.188 41.558 51 40.324 51 38.02 C 51 35.46 52.632 34.53 53.89 34.53 C 55.428 34.53 55.684 35.322 56.756 35.322 C 57.992 35.322 58.831 34.298 58.831 33.228 C 58.831 32.436 58.481 31.832 57.945 31.412 C 56.966 30.691 55.592 30.156 53.541 30.156 C 49.928 30.156 46.409 32.53 46.409 38.021 C 46.408 43.278 49.927 45.722 53.4 45.722 Z" fill="#D62300"/>
    <path d="M 12.43 45.582 L 15.716 45.582 C 18.816 45.582 20.703 43.51 20.703 40.928 C 20.703 38.857 19.468 37.903 19.189 37.671 C 19.072 37.577 18.956 37.485 18.956 37.391 C 18.956 37.275 19.026 37.229 19.142 37.089 C 19.585 36.577 20.028 35.763 20.028 34.575 C 20.028 31.783 18.14 30.294 15.203 30.294 L 12.43 30.294 C 10.589 30.294 9.704 31.365 9.704 32.807 L 9.704 43.068 C 9.704 44.512 10.589 45.582 12.43 45.582 Z M 13.805 34.297 C 13.805 33.995 13.992 33.761 14.388 33.761 L 14.691 33.761 C 15.692 33.761 15.996 34.459 15.996 35.065 C 15.996 35.623 15.694 36.414 14.691 36.414 L 14.388 36.414 C 13.992 36.414 13.805 36.182 13.805 35.879 L 13.805 34.297 Z M 13.805 39.742 C 13.805 39.44 13.992 39.206 14.388 39.206 L 14.807 39.206 C 15.926 39.206 16.251 39.951 16.251 40.626 C 16.251 41.232 15.925 42.092 14.807 42.092 L 14.388 42.092 C 13.992 42.092 13.805 41.86 13.805 41.556 L 13.805 39.742 Z" fill="#D62300"/>
    <path d="M 73.278 45.698 C 74.77 45.698 75.585 44.58 75.585 43.185 L 75.585 40.718 C 75.585 40.416 75.725 40.276 75.957 40.276 C 76.238 40.276 76.33 40.439 76.376 40.718 C 76.586 41.905 77.145 43.51 77.774 44.326 C 78.567 45.373 79.313 45.699 80.058 45.699 C 81.27 45.699 82.319 44.745 82.319 43.558 C 82.319 42.766 81.992 42.184 81.573 41.65 C 80.781 40.65 80.292 39.998 79.989 39.184 C 79.919 38.998 79.965 38.834 80.175 38.672 C 80.898 38.114 81.737 36.88 81.737 34.926 C 81.737 31.971 79.29 30.295 76.33 30.295 L 73.697 30.295 C 71.856 30.295 70.971 31.365 70.971 32.808 L 70.971 43.187 C 70.971 44.582 71.786 45.698 73.278 45.698 Z M 75.328 34.693 C 75.328 34.39 75.515 34.157 75.911 34.157 L 76.238 34.157 C 77.217 34.157 77.519 34.855 77.519 35.46 C 77.519 36.042 77.217 36.81 76.238 36.81 L 75.911 36.81 C 75.515 36.81 75.328 36.578 75.328 36.275 L 75.328 34.693 Z" fill="#D62300"/>
    <path d="M 67.592 45.582 C 68.897 45.582 69.923 44.814 69.923 43.418 C 69.923 42.045 68.897 41.277 67.592 41.277 L 65.495 41.277 C 65.098 41.277 64.912 41.044 64.912 40.741 L 64.912 40.299 C 64.912 39.997 65.098 39.763 65.495 39.763 L 67.103 39.763 C 68.222 39.763 69.107 39.089 69.107 37.902 C 69.107 36.715 68.222 36.04 67.103 36.04 L 65.495 36.04 C 65.098 36.04 64.912 35.808 64.912 35.504 L 64.912 35.132 C 64.912 34.83 65.098 34.596 65.495 34.596 L 67.592 34.596 C 68.897 34.596 69.923 33.829 69.923 32.432 C 69.923 31.059 68.897 30.291 67.592 30.291 L 63.188 30.291 C 61.347 30.291 60.461 31.361 60.461 32.805 L 60.461 43.066 C 60.461 44.508 61.347 45.579 63.188 45.579 L 67.592 45.579 L 67.592 45.582 Z" fill="#D62300"/>
    <path d="M 27.554 45.698 C 31.33 45.698 33.334 43.44 33.334 40.602 L 33.334 32.761 C 33.334 31.365 32.519 30.247 31.027 30.247 C 29.535 30.247 28.72 31.365 28.72 32.761 L 28.72 40.346 C 28.72 40.905 28.394 41.556 27.554 41.556 C 26.715 41.556 26.435 40.905 26.435 40.346 L 26.435 32.761 C 26.435 31.365 25.596 30.247 24.104 30.247 C 22.612 30.247 21.797 31.365 21.797 32.761 L 21.797 40.602 C 21.798 43.442 23.779 45.698 27.554 45.698 Z" fill="#D62300"/>
    <path d="M 43.915 45.698 C 45.127 45.698 46.176 44.744 46.176 43.557 C 46.176 42.765 45.849 42.183 45.43 41.649 C 44.755 40.765 44.149 39.997 43.846 39.183 C 43.776 38.997 43.822 38.833 44.032 38.671 C 44.755 38.113 45.594 36.879 45.594 34.925 C 45.594 31.969 43.147 30.294 40.187 30.294 L 37.552 30.294 C 35.712 30.294 34.826 31.364 34.826 32.807 L 34.826 43.186 C 34.826 44.582 35.642 45.699 37.133 45.699 C 38.625 45.699 39.441 44.582 39.441 43.186 L 39.441 40.72 C 39.441 40.418 39.581 40.278 39.813 40.278 C 40.093 40.278 40.186 40.44 40.232 40.72 C 40.442 41.906 41.001 43.512 41.63 44.327 C 42.423 45.372 43.168 45.698 43.915 45.698 Z M 40.092 36.809 L 39.766 36.809 C 39.369 36.809 39.183 36.577 39.183 36.273 L 39.183 34.693 C 39.183 34.39 39.369 34.157 39.766 34.157 L 40.092 34.157 C 41.071 34.157 41.374 34.855 41.374 35.46 C 41.374 36.041 41.071 36.809 40.092 36.809 Z" fill="#D62300"/>
  </g>
  <path d="M79.0149 83.0196C79.0149 82.3941 79.5001 81.8709 80.1653 81.8709C80.8306 81.8709 81.3158 82.3941 81.3158 83.0196C81.3158 83.6914 80.8306 84.1759 80.1653 84.1759C79.5001 84.1771 79.0149 83.6839 79.0149 83.0196ZM81.0657 83.0196C81.0657 82.4415 80.6118 82.1057 80.1653 82.1057C79.7189 82.1057 79.265 82.4415 79.265 83.0196C79.265 83.6215 79.7189 83.9411 80.1653 83.9411C80.6118 83.9411 81.0657 83.6215 81.0657 83.0196ZM79.7664 83.5128V82.5364C79.7664 82.474 79.8215 82.4116 79.884 82.4116H80.2129C80.4705 82.4116 80.6505 82.5676 80.6505 82.7787C80.6505 82.9585 80.5492 83.1145 80.3142 83.1532L80.5718 83.4429C80.5955 83.4667 80.6105 83.4979 80.6105 83.5203C80.6105 83.5903 80.563 83.6377 80.493 83.6377C80.4455 83.6377 80.4142 83.614 80.3917 83.5828L80.0478 83.177H80.009V83.5128C80.009 83.5753 79.954 83.6302 79.884 83.6302C79.8215 83.629 79.7664 83.5753 79.7664 83.5128ZM80.1816 82.9572C80.3229 82.9572 80.4004 82.8873 80.4004 82.7936C80.4004 82.6925 80.3304 82.6376 80.2054 82.6376H80.0103V82.9585H80.1816V82.9572Z" fill="#D62300"/>
</svg>